<svg width="22" height="22" viewBox="0 0 22 22" xmlns="http://www.w3.org/2000/svg">
    <g fill="none" fill-rule="evenodd">
        <path d="M0 0h22v22H0z"/>
        <path d="M11 20a9 9 0 1 0 0-18 9 9 0 0 0 0 18zm.009-3.667c-.622 0-1.12-.497-1.12-1.12 0-.63.498-1.11 1.12-1.11.631 0 1.111.48 1.111 1.11-.009.614-.48 1.12-1.111 1.12zm2.675-6.577c-.675.986-1.315 1.297-1.662 1.928-.142.258-.195.427-.195 1.254h-1.618c0-.436-.071-1.147.275-1.76.436-.774 1.263-1.236 1.743-1.92.506-.72.222-2.071-1.218-2.071-.942 0-1.405.71-1.6 1.315L7.942 7.88c.4-1.191 1.476-2.213 3.05-2.213 1.315 0 2.212.595 2.675 1.35.39.64.622 1.84.017 2.739z" fill="#177991" fill-rule="nonzero"/>
    </g>
</svg>
