<svg width="24" height="24" viewBox="0 0 24 24" xmlns="http://www.w3.org/2000/svg">
    <g fill="none" fill-rule="evenodd">
        <path d="M0 0h24v24H0z"/>
        <path d="M12 3.778c1.076 0 1.993.379 2.752 1.137.758.758 1.137 1.676 1.137 2.752V9.22h.779c.856 0 1.55.694 1.55 1.55v7.79a1.55 1.55 0 0 1-1.55 1.55h-9.34a1.55 1.55 0 0 1-1.55-1.55v-7.79c0-.856.694-1.55 1.55-1.55h.783V7.667c0-1.076.38-1.994 1.138-2.752.758-.758 1.675-1.137 2.751-1.137zm0 9.333c-.428 0-.794.153-1.098.457a1.499 1.499 0 0 0-.458 1.099c0 .427.153.794.458 1.099.304.304.67.456 1.098.456a1.5 1.5 0 0 0 1.099-.456 1.5 1.5 0 0 0 .457-1.1 1.5 1.5 0 0 0-.457-1.098A1.5 1.5 0 0 0 12 13.11zm0-7.778c-.648 0-1.2.227-1.653.68a2.251 2.251 0 0 0-.68 1.654L9.666 9.22h4.667V7.667c0-.648-.227-1.2-.68-1.653A2.251 2.251 0 0 0 12 5.334z" fill="#177991" fill-rule="nonzero"/>
    </g>
</svg>
