<svg width="24" height="24" viewBox="0 0 24 24" xmlns="http://www.w3.org/2000/svg">
    <g fill="none" fill-rule="evenodd">
        <path d="M0 0h24v24H0z"/>
        <path d="M12 3c1.076 0 1.993.379 2.752 1.137.758.758 1.137 1.676 1.137 2.752v2.33l.779.001c.856 0 1.55.694 1.55 1.55v7.79a1.55 1.55 0 0 1-1.55 1.55h-9.34a1.55 1.55 0 0 1-1.55-1.55v-7.79c0-.856.694-1.55 1.55-1.55l7.005-.001v-2.33c0-.648-.227-1.2-.68-1.653A2.251 2.251 0 0 0 12 4.556c-.648 0-1.2.227-1.653.68a2.251 2.251 0 0 0-.68 1.653H8.11c0-1.076.38-1.994 1.138-2.752C10.007 3.38 10.924 3 12 3zm4.668 7.72h-9.34a.05.05 0 0 0-.05.05v7.79c0 .028.022.05.05.05h9.34a.05.05 0 0 0 .05-.05v-7.79a.05.05 0 0 0-.05-.05zM12 13.111a1.5 1.5 0 0 1 1.099.457 1.5 1.5 0 0 1 .457 1.099 1.5 1.5 0 0 1-.457 1.099 1.5 1.5 0 0 1-1.099.456c-.428 0-.794-.152-1.098-.456a1.499 1.499 0 0 1-.458-1.1c0-.427.153-.793.458-1.098.304-.304.67-.457 1.098-.457z" fill="#177991" fill-rule="nonzero"/>
    </g>
</svg>
