<svg width="24" height="24" viewBox="0 0 24 24" xmlns="http://www.w3.org/2000/svg">
    <g fill="none" fill-rule="evenodd">
        <path d="M12 8.667A3.335 3.335 0 0 1 15.333 12c0 .433-.086.84-.24 1.22l1.947 1.947A7.878 7.878 0 0 0 19.327 12c-1.154-2.927-4-5-7.334-5-.933 0-1.826.167-2.653.467l1.44 1.44c.38-.154.787-.24 1.22-.24zm-6.667-1.82 1.52 1.52.307.306A7.87 7.87 0 0 0 4.667 12c1.153 2.927 4 5 7.333 5 1.033 0 2.02-.2 2.92-.56l.28.28 1.953 1.947.847-.847L6.18 6l-.847.847zm3.687 3.686 1.033 1.034A1.88 1.88 0 0 0 10 12c0 1.107.893 2 2 2 .147 0 .293-.02.433-.053l1.034 1.033c-.447.22-.94.353-1.467.353A3.335 3.335 0 0 1 8.667 12c0-.527.133-1.02.353-1.467zm2.873-.52 2.1 2.1.014-.106c0-1.107-.894-2-2-2l-.114.006z" fill-rule="nonzero"/>
    </g>
</svg>
